<?xml version="1.0" standalone="no"?>
<!DOCTYPE svg PUBLIC "-//W3C//DTD SVG 20010904//EN"
 "http://www.w3.org/TR/2001/REC-SVG-20010904/DTD/svg10.dtd">
<svg version="1.0" xmlns="http://www.w3.org/2000/svg"
 width="800.000000pt" height="229.000000pt" viewBox="0 0 800.000000 229.000000"
 preserveAspectRatio="xMidYMid meet">

<g transform="translate(0.000000,229.000000) scale(0.100000,-0.100000)"
fill="#000000" stroke="none">
<path d="M4777 2131 c-136 -45 -225 -122 -294 -256 -69 -133 -66 -253 9 -326
45 -43 94 -55 187 -46 61 7 181 44 181 57 0 8 -73 23 -175 36 -99 12 -135 51
-115 124 25 92 141 193 275 238 58 19 86 23 169 20 l99 -3 19 30 c38 64 11
124 -66 144 -81 20 -192 13 -289 -18z"/>
<path d="M3973 2008 c-58 -37 -99 -85 -150 -175 -58 -106 -66 -170 -23 -193
14 -8 26 -7 43 1 25 13 162 151 170 171 2 7 8 10 12 5 12 -10 -10 -116 -61
-294 -69 -242 -145 -586 -143 -652 0 -17 12 3 35 59 19 47 62 142 94 212 33
69 60 130 60 135 0 5 22 59 49 120 27 61 63 157 81 214 17 57 36 119 42 138
17 56 15 181 -5 218 -44 84 -114 97 -204 41z"/>
<path d="M4746 1788 c-18 -26 -20 -56 -7 -91 12 -30 21 -33 126 -46 103 -13
183 -39 201 -66 27 -42 -27 -175 -140 -340 -52 -77 -246 -288 -401 -437 -22
-21 -37 -38 -33 -38 15 0 127 64 221 128 107 72 288 229 354 309 110 131 183
271 183 355 0 33 -33 112 -57 136 -43 43 -134 75 -287 102 -98 17 -143 13
-160 -12z"/>
<path d="M4718 413 c7 -3 16 -2 19 1 4 3 -2 6 -13 5 -11 0 -14 -3 -6 -6z"/>
</g>
</svg>
