<?xml version="1.0" standalone="no"?>
<!DOCTYPE svg PUBLIC "-//W3C//DTD SVG 20010904//EN"
 "http://www.w3.org/TR/2001/REC-SVG-20010904/DTD/svg10.dtd">
<svg version="1.0" xmlns="http://www.w3.org/2000/svg"
 width="310.000000pt" height="165.000000pt" viewBox="0 0 310.000000 165.000000"
 preserveAspectRatio="xMidYMid meet">

<g transform="translate(0.000000,165.000000) scale(0.100000,-0.100000)"
fill="#000000" stroke="none">
<path d="M933 1051 c-59 -27 -92 -98 -61 -129 15 -15 82 -16 73 -2 -3 6 -15
10 -26 10 -35 0 -35 31 -1 62 24 21 43 28 72 28 60 0 67 31 10 44 -15 4 -42
-2 -67 -13z"/>
<path d="M1237 1043 c-4 -3 -6 -25 -6 -47 l2 -41 7 45 c8 48 7 54 -3 43z"/>
<path d="M1278 1038 c6 -7 12 -29 15 -48 4 -34 4 -34 5 6 2 31 -2 44 -14 48
-13 5 -14 3 -6 -6z"/>
<path d="M1543 1035 c2 -11 -3 -33 -11 -48 -7 -16 -11 -32 -7 -35 3 -3 8 4 12
16 7 28 17 28 31 0 6 -14 11 -17 11 -8 0 8 -8 33 -19 55 -11 22 -18 31 -17 20z"/>
<path d="M1603 1003 c-11 -47 -8 -79 4 -35 6 26 18 28 27 6 4 -9 9 -15 11 -12
3 3 -3 24 -12 47 l-18 42 -12 -48z"/>
<path d="M1978 1039 c-33 -19 -12 -89 26 -89 35 0 50 66 19 91 -15 13 -15 12
-5 -8 17 -30 15 -60 -4 -67 -22 -8 -22 -8 -34 15 -9 16 -8 26 5 45 17 27 17
28 -7 13z"/>
<path d="M2523 1035 c4 -8 2 -17 -3 -20 -16 -10 -11 -52 6 -59 20 -8 44 10 44
33 -1 17 -33 61 -45 61 -4 0 -5 -7 -2 -15z m37 -51 c0 -7 -5 -16 -11 -20 -17
-10 -32 12 -24 36 5 17 10 19 21 9 8 -6 14 -17 14 -25z"/>
<path d="M721 1004 c-21 -27 -28 -64 -13 -64 5 0 17 9 27 20 10 11 20 18 22
16 2 -2 -8 -45 -22 -96 -15 -50 -25 -93 -22 -96 5 -6 62 120 78 173 6 23 9 49
6 57 -10 25 -53 19 -76 -10z"/>
<path d="M1324 1006 c-11 -29 1 -51 26 -51 21 0 26 5 28 33 3 29 1 32 -23 32
-14 0 -28 -6 -31 -14z m43 -11 c5 -16 -14 -38 -26 -31 -18 12 -13 48 6 44 9
-2 18 -7 20 -13z"/>
<path d="M1401 993 c6 -18 15 -33 20 -33 11 0 32 50 24 58 -3 4 -9 -4 -12 -17
l-6 -24 -18 24 -19 24 11 -32z"/>
<path d="M1468 1013 c-2 -5 -3 -19 -3 -33 0 -19 6 -26 25 -27 l25 -3 -25 11
c-13 5 -20 13 -15 17 12 9 16 42 4 42 -4 0 -9 -3 -11 -7z"/>
<path d="M1660 990 c0 -16 5 -30 10 -30 6 0 10 11 10 25 0 45 28 30 33 -17 l4
-43 1 48 c2 46 1 47 -28 47 -27 0 -30 -3 -30 -30z"/>
<path d="M1745 995 c9 -44 23 -53 35 -21 14 38 12 56 -4 28 l-12 -23 -12 23
c-12 22 -12 21 -7 -7z"/>
<path d="M1810 989 c0 -17 4 -28 10 -24 6 3 10 17 10 31 0 13 -4 24 -10 24 -5
0 -10 -14 -10 -31z"/>
<path d="M1845 1009 c-4 -5 -4 -21 -1 -35 5 -19 12 -25 29 -22 17 2 23 11 25
36 3 28 0 32 -22 32 -14 0 -28 -5 -31 -11z m45 -18 c0 -11 -5 -23 -11 -27 -15
-9 -33 12 -26 30 9 23 37 20 37 -3z"/>
<path d="M2061 975 c0 -27 3 -45 7 -39 4 7 16 13 27 15 15 3 20 13 22 39 1 34
1 34 -5 5 -4 -17 -14 -30 -22 -30 -8 0 -18 13 -21 30 -5 24 -7 21 -8 -20z"/>
<path d="M2142 988 c4 -39 31 -50 47 -19 15 28 3 51 -26 51 -21 0 -24 -4 -21
-32z m40 -3 c-5 -25 -8 -29 -21 -20 -19 11 -13 47 7 43 11 -2 16 -11 14 -23z"/>
<path d="M2217 1013 c-13 -12 -7 -51 8 -57 25 -9 43 4 47 35 4 26 2 29 -22 29
-15 0 -30 -3 -33 -7z m41 -25 c-2 -13 -10 -23 -18 -23 -8 0 -16 10 -18 23 -3
17 2 22 18 22 16 0 21 -5 18 -22z"/>
<path d="M2291 988 c2 -31 2 -31 6 -5 3 18 10 27 23 27 13 0 20 -9 23 -27 4
-26 4 -26 6 5 1 29 -2 32 -29 32 -27 0 -30 -3 -29 -32z"/>
<path d="M2377 1014 c-13 -13 -7 -55 8 -60 21 -9 47 15 43 40 -3 21 -37 34
-51 20z m40 -19 c5 -16 -14 -38 -26 -31 -18 12 -13 48 6 44 9 -2 18 -7 20 -13z"/>
<path d="M2440 1016 c0 -15 21 -56 29 -56 5 0 14 14 20 30 5 17 6 30 2 30 -5
0 -12 -10 -15 -22 l-7 -23 -9 23 c-8 19 -20 30 -20 18z"/>
<path d="M2593 985 c0 -22 2 -30 4 -17 2 12 2 30 0 40 -3 9 -5 -1 -4 -23z"/>
<path d="M2624 1006 c-11 -29 1 -51 26 -51 21 0 26 5 28 33 3 29 1 32 -23 32
-14 0 -28 -6 -31 -14z m36 -22 c0 -31 -23 -28 -28 4 -2 15 2 22 12 22 11 0 16
-9 16 -26z"/>
<path d="M940 961 c0 -8 74 -27 91 -23 3 0 3 -12 1 -29 -2 -16 -8 -27 -12 -24
-8 5 -20 -19 -19 -38 0 -4 -20 -26 -43 -49 l-43 -40 43 32 c88 67 120 136 76
164 -25 17 -94 22 -94 7z"/>
<path d="M1237 845 c-9 -25 -12 -45 -6 -45 5 0 9 5 9 10 0 14 37 12 43 -2 4
-9 6 -7 6 3 1 23 -19 79 -29 79 -4 0 -15 -20 -23 -45z m33 0 c0 -8 -4 -15 -10
-15 -5 0 -10 7 -10 15 0 8 5 15 10 15 6 0 10 -7 10 -15z"/>
<path d="M1385 856 c-20 -14 -17 -47 5 -54 13 -5 13 -3 1 11 -11 14 -11 20 -1
32 17 20 33 8 27 -21 -2 -13 0 -24 4 -24 15 0 10 57 -5 63 -8 3 -22 0 -31 -7z"/>
<path d="M1328 830 c2 -16 5 -30 7 -30 2 0 5 14 7 30 3 19 0 30 -7 30 -7 0
-10 -11 -7 -30z"/>
<path d="M1451 815 c0 -34 3 -45 9 -35 4 9 5 31 0 50 -8 34 -8 33 -9 -15z"/>
<path d="M1500 836 c0 -13 -6 -27 -12 -29 -8 -3 -6 -6 5 -6 12 -1 17 7 17 29
0 17 -2 30 -5 30 -3 0 -5 -11 -5 -24z"/>
<path d="M1527 841 c-2 -10 -1 -24 3 -31 5 -7 9 0 12 19 5 34 -7 43 -15 12z"/>
<path d="M1595 830 c0 -15 3 -26 8 -23 4 2 7 13 7 23 0 10 -3 21 -7 23 -5 3
-8 -8 -8 -23z"/>
<path d="M1631 830 c6 -16 14 -30 18 -30 10 0 33 51 27 58 -3 3 -10 -6 -15
-19 l-10 -24 -7 23 c-3 12 -10 22 -15 22 -4 0 -3 -13 2 -30z"/>
<path d="M1740 815 c0 -27 3 -45 7 -42 7 8 6 77 -2 85 -3 3 -5 -16 -5 -43z"/>
<path d="M1782 830 c0 -16 4 -30 9 -30 5 0 9 14 9 30 0 17 -4 30 -8 30 -5 0
-9 -13 -10 -30z"/>
<path d="M1818 836 c-3 -15 -2 -29 2 -31 11 -7 19 30 10 45 -5 7 -9 2 -12 -14z"/>
<path d="M1560 823 c0 -13 5 -23 10 -23 13 0 13 11 0 30 -8 12 -10 11 -10 -7z"/>
<path d="M1230 721 c0 -5 7 -14 15 -21 14 -12 13 -16 -6 -37 l-22 -23 34 1
c19 1 26 3 17 6 -21 5 -23 14 -5 32 10 11 10 14 0 18 -19 7 -16 21 5 26 10 3
6 5 -10 6 -16 0 -28 -3 -28 -8z"/>
<path d="M1385 708 c-1 -13 -4 -34 -8 -48 l-8 -25 15 25 16 25 6 -22 c3 -13
10 -23 15 -23 4 0 1 20 -9 45 -18 50 -27 57 -27 23z"/>
<path d="M2358 705 c-3 -16 -8 -39 -13 -50 -6 -17 -4 -16 13 4 l19 24 6 -24
c3 -13 9 -21 12 -18 3 4 -3 26 -13 50 l-19 44 -5 -30z"/>
<path d="M1453 703 c-7 -2 -12 -19 -12 -36 l1 -32 7 30 c10 47 35 38 42 -15
l7 -45 -2 50 c-1 50 -12 62 -43 48z"/>
<path d="M1533 703 c-8 -3 -13 -22 -12 -51 1 -26 3 -39 6 -29 2 9 13 17 23 17
23 0 36 36 20 55 -13 16 -17 17 -37 8z m29 -15 c7 -19 -2 -38 -18 -38 -8 0
-14 8 -14 18 0 30 23 44 32 20z"/>
<path d="M1740 691 c-5 -11 -7 -27 -4 -35 10 -27 21 -18 16 14 -3 22 0 30 11
30 20 0 30 -29 16 -46 -7 -9 -8 -14 -1 -14 12 0 22 24 22 51 0 26 -46 26 -60
0z"/>
<path d="M1821 670 c1 -34 1 -34 8 -6 10 47 31 45 31 -3 0 -23 5 -41 10 -41
12 0 13 59 2 77 -4 7 -18 11 -30 10 -18 -1 -22 -7 -21 -37z"/>
<path d="M1940 675 c0 -28 3 -36 9 -26 8 13 12 13 27 0 16 -13 16 -12 5 9 -6
12 -9 28 -5 34 5 7 3 8 -6 3 -7 -4 -16 -2 -21 6 -6 9 -9 1 -9 -26z"/>
<path d="M2010 691 c-14 -27 -2 -51 26 -51 21 0 24 5 24 35 0 28 -4 35 -20 35
-10 0 -24 -9 -30 -19z m40 -16 c0 -16 -6 -25 -15 -25 -15 0 -21 31 -8 43 13
14 23 6 23 -18z"/>
<path d="M2087 702 c6 -4 13 -21 16 -37 l4 -30 2 32 c0 17 7 34 14 36 6 3 -1
6 -18 6 -16 0 -25 -3 -18 -7z"/>
<path d="M2151 688 c-12 -33 -2 -50 27 -46 22 2 26 8 26 33 0 39 -39 49 -53
13z m39 -13 c0 -16 -6 -25 -15 -25 -15 0 -21 31 -8 43 13 14 23 6 23 -18z"/>
<path d="M2272 673 c1 -38 1 -38 5 -5 3 25 9 32 21 30 10 -2 17 -13 17 -25 0
-12 4 -26 9 -30 4 -4 6 8 4 27 -3 30 -7 35 -30 38 -26 3 -28 1 -26 -35z"/>
<path d="M2420 695 c-18 -22 -3 -55 26 -55 21 0 24 5 24 35 0 28 -4 35 -19 35
-10 0 -24 -7 -31 -15z m40 -20 c0 -15 -6 -25 -14 -25 -19 0 -28 14 -20 34 10
25 34 19 34 -9z"/>
<path d="M2564 696 c-11 -29 1 -51 29 -54 27 -3 28 -1 25 30 -2 25 -8 34 -26
36 -13 2 -24 -3 -28 -12z m36 -21 c0 -16 -6 -25 -15 -25 -15 0 -21 31 -8 43
13 14 23 6 23 -18z"/>
<path d="M2645 694 c-9 -9 -14 -23 -11 -31 3 -8 6 -17 6 -19 0 -2 7 -4 15 -4
8 0 15 -8 15 -17 0 -12 3 -14 11 -6 13 13 4 33 -17 33 -20 0 -18 37 4 49 9 6
12 11 5 11 -6 0 -19 -7 -28 -16z"/>
<path d="M1310 665 c0 -24 2 -27 11 -15 8 11 12 12 16 3 2 -7 9 -13 15 -13 6
0 6 6 -2 15 -7 8 -10 21 -7 29 4 10 0 14 -14 13 -14 -1 -19 -9 -19 -32z"/>
<path d="M1592 673 c2 -22 8 -28 28 -28 21 0 25 5 27 30 1 18 -1 22 -4 10 -8
-31 -22 -42 -33 -25 -6 8 -8 21 -5 28 2 6 0 12 -6 12 -6 0 -9 -12 -7 -27z"/>
<path d="M1670 689 c0 -8 6 -24 14 -35 14 -18 15 -18 26 10 6 16 9 31 6 33 -2
3 -7 -6 -11 -18 l-7 -22 -14 24 c-9 15 -13 19 -14 8z"/>
<path d="M2490 665 c0 -22 3 -26 9 -16 8 12 12 12 25 2 10 -8 16 -9 16 -3 0 6
-5 14 -10 17 -8 5 -8 11 0 20 8 10 5 13 -15 11 -21 -1 -25 -6 -25 -31z"/>
</g>
</svg>
